<mxfile host="app.diagrams.net" modified="2024-04-05T15:56:59.469Z" agent="Mozilla/5.0 (X11; Ubuntu; Linux x86_64; rv:122.0) Gecko/20100101 Firefox/122.0" etag="UKXyUPSCY6bpTncb6fzr" version="21.7.5" type="device">
  <diagram name="Page-1" id="VKLjrzEP6iEt6UY4dICo">
    <mxGraphModel dx="2924" dy="1125" grid="1" gridSize="10" guides="1" tooltips="1" connect="1" arrows="1" fold="1" page="1" pageScale="1" pageWidth="850" pageHeight="1100" math="0" shadow="0">
      <root>
        <mxCell id="0" />
        <mxCell id="1" parent="0" />
        <mxCell id="hbsouDKqxY18hAI5hccB-32" style="edgeStyle=orthogonalEdgeStyle;rounded=0;orthogonalLoop=1;jettySize=auto;html=1;exitX=1;exitY=0.5;exitDx=0;exitDy=0;entryX=-0.075;entryY=0.513;entryDx=0;entryDy=0;entryPerimeter=0;" edge="1" parent="1" source="hbsouDKqxY18hAI5hccB-1" target="hbsouDKqxY18hAI5hccB-31">
          <mxGeometry relative="1" as="geometry" />
        </mxCell>
        <mxCell id="hbsouDKqxY18hAI5hccB-1" value="init" style="rounded=0;whiteSpace=wrap;html=1;" vertex="1" parent="1">
          <mxGeometry x="-220" y="430" width="80" height="40" as="geometry" />
        </mxCell>
        <mxCell id="hbsouDKqxY18hAI5hccB-13" style="edgeStyle=orthogonalEdgeStyle;rounded=0;orthogonalLoop=1;jettySize=auto;html=1;exitX=1;exitY=0.5;exitDx=0;exitDy=0;entryX=0;entryY=0.5;entryDx=0;entryDy=0;" edge="1" parent="1" source="hbsouDKqxY18hAI5hccB-2" target="hbsouDKqxY18hAI5hccB-3">
          <mxGeometry relative="1" as="geometry" />
        </mxCell>
        <mxCell id="hbsouDKqxY18hAI5hccB-14" style="edgeStyle=orthogonalEdgeStyle;rounded=0;orthogonalLoop=1;jettySize=auto;html=1;exitX=1;exitY=0.5;exitDx=0;exitDy=0;entryX=0;entryY=0.5;entryDx=0;entryDy=0;" edge="1" parent="1" source="hbsouDKqxY18hAI5hccB-2" target="hbsouDKqxY18hAI5hccB-5">
          <mxGeometry relative="1" as="geometry" />
        </mxCell>
        <mxCell id="hbsouDKqxY18hAI5hccB-2" value="commit" style="rounded=0;whiteSpace=wrap;html=1;" vertex="1" parent="1">
          <mxGeometry x="310" y="430" width="80" height="40" as="geometry" />
        </mxCell>
        <mxCell id="hbsouDKqxY18hAI5hccB-15" style="edgeStyle=orthogonalEdgeStyle;rounded=0;orthogonalLoop=1;jettySize=auto;html=1;exitX=1;exitY=0.5;exitDx=0;exitDy=0;entryX=0;entryY=0.25;entryDx=0;entryDy=0;" edge="1" parent="1" source="hbsouDKqxY18hAI5hccB-3" target="hbsouDKqxY18hAI5hccB-4">
          <mxGeometry relative="1" as="geometry" />
        </mxCell>
        <mxCell id="hbsouDKqxY18hAI5hccB-3" value="clone" style="rounded=0;whiteSpace=wrap;html=1;" vertex="1" parent="1">
          <mxGeometry x="490" y="370" width="80" height="40" as="geometry" />
        </mxCell>
        <mxCell id="hbsouDKqxY18hAI5hccB-19" style="edgeStyle=orthogonalEdgeStyle;rounded=0;orthogonalLoop=1;jettySize=auto;html=1;exitX=1;exitY=0.5;exitDx=0;exitDy=0;entryX=0;entryY=0.5;entryDx=0;entryDy=0;" edge="1" parent="1" source="hbsouDKqxY18hAI5hccB-4" target="hbsouDKqxY18hAI5hccB-18">
          <mxGeometry relative="1" as="geometry">
            <mxPoint x="850" y="440" as="targetPoint" />
          </mxGeometry>
        </mxCell>
        <mxCell id="hbsouDKqxY18hAI5hccB-41" style="edgeStyle=orthogonalEdgeStyle;rounded=0;orthogonalLoop=1;jettySize=auto;html=1;exitX=0.5;exitY=0;exitDx=0;exitDy=0;entryX=0.5;entryY=1;entryDx=0;entryDy=0;" edge="1" parent="1" source="hbsouDKqxY18hAI5hccB-4" target="hbsouDKqxY18hAI5hccB-37">
          <mxGeometry relative="1" as="geometry" />
        </mxCell>
        <mxCell id="hbsouDKqxY18hAI5hccB-4" value="install" style="rounded=0;whiteSpace=wrap;html=1;" vertex="1" parent="1">
          <mxGeometry x="650" y="420" width="80" height="40" as="geometry" />
        </mxCell>
        <mxCell id="hbsouDKqxY18hAI5hccB-16" style="edgeStyle=orthogonalEdgeStyle;rounded=0;orthogonalLoop=1;jettySize=auto;html=1;exitX=1;exitY=0.5;exitDx=0;exitDy=0;entryX=0;entryY=0.75;entryDx=0;entryDy=0;" edge="1" parent="1" source="hbsouDKqxY18hAI5hccB-5" target="hbsouDKqxY18hAI5hccB-4">
          <mxGeometry relative="1" as="geometry" />
        </mxCell>
        <mxCell id="hbsouDKqxY18hAI5hccB-5" value="pull" style="rounded=0;whiteSpace=wrap;html=1;" vertex="1" parent="1">
          <mxGeometry x="490" y="480" width="80" height="40" as="geometry" />
        </mxCell>
        <mxCell id="hbsouDKqxY18hAI5hccB-12" style="edgeStyle=orthogonalEdgeStyle;rounded=0;orthogonalLoop=1;jettySize=auto;html=1;exitX=1;exitY=0.5;exitDx=0;exitDy=0;entryX=0;entryY=0.25;entryDx=0;entryDy=0;" edge="1" parent="1" source="hbsouDKqxY18hAI5hccB-6" target="hbsouDKqxY18hAI5hccB-2">
          <mxGeometry relative="1" as="geometry" />
        </mxCell>
        <mxCell id="hbsouDKqxY18hAI5hccB-6" value="add instance" style="rounded=0;whiteSpace=wrap;html=1;" vertex="1" parent="1">
          <mxGeometry x="70" y="330" width="80" height="40" as="geometry" />
        </mxCell>
        <mxCell id="hbsouDKqxY18hAI5hccB-11" style="edgeStyle=orthogonalEdgeStyle;rounded=0;orthogonalLoop=1;jettySize=auto;html=1;exitX=1;exitY=0.5;exitDx=0;exitDy=0;entryX=0;entryY=0.75;entryDx=0;entryDy=0;" edge="1" parent="1" source="hbsouDKqxY18hAI5hccB-7" target="hbsouDKqxY18hAI5hccB-2">
          <mxGeometry relative="1" as="geometry" />
        </mxCell>
        <mxCell id="hbsouDKqxY18hAI5hccB-7" value="manual changes" style="rounded=0;whiteSpace=wrap;html=1;dashed=1;" vertex="1" parent="1">
          <mxGeometry x="70" y="520" width="80" height="40" as="geometry" />
        </mxCell>
        <mxCell id="hbsouDKqxY18hAI5hccB-21" style="edgeStyle=orthogonalEdgeStyle;rounded=0;orthogonalLoop=1;jettySize=auto;html=1;exitX=1;exitY=0.5;exitDx=0;exitDy=0;entryX=0;entryY=0.5;entryDx=0;entryDy=0;" edge="1" parent="1" source="hbsouDKqxY18hAI5hccB-18" target="hbsouDKqxY18hAI5hccB-20">
          <mxGeometry relative="1" as="geometry" />
        </mxCell>
        <mxCell id="hbsouDKqxY18hAI5hccB-18" value="apply" style="rounded=0;whiteSpace=wrap;html=1;" vertex="1" parent="1">
          <mxGeometry x="810" y="420" width="80" height="40" as="geometry" />
        </mxCell>
        <mxCell id="hbsouDKqxY18hAI5hccB-23" style="edgeStyle=orthogonalEdgeStyle;rounded=0;orthogonalLoop=1;jettySize=auto;html=1;exitX=0.75;exitY=1;exitDx=0;exitDy=0;entryX=0.75;entryY=0;entryDx=0;entryDy=0;" edge="1" parent="1" source="hbsouDKqxY18hAI5hccB-20" target="hbsouDKqxY18hAI5hccB-22">
          <mxGeometry relative="1" as="geometry" />
        </mxCell>
        <mxCell id="hbsouDKqxY18hAI5hccB-20" value="start" style="rounded=0;whiteSpace=wrap;html=1;" vertex="1" parent="1">
          <mxGeometry x="950" y="420" width="80" height="40" as="geometry" />
        </mxCell>
        <mxCell id="hbsouDKqxY18hAI5hccB-24" style="edgeStyle=orthogonalEdgeStyle;rounded=0;orthogonalLoop=1;jettySize=auto;html=1;exitX=0.25;exitY=0;exitDx=0;exitDy=0;entryX=0.25;entryY=1;entryDx=0;entryDy=0;" edge="1" parent="1" source="hbsouDKqxY18hAI5hccB-22" target="hbsouDKqxY18hAI5hccB-20">
          <mxGeometry relative="1" as="geometry" />
        </mxCell>
        <mxCell id="hbsouDKqxY18hAI5hccB-29" style="edgeStyle=orthogonalEdgeStyle;rounded=0;orthogonalLoop=1;jettySize=auto;html=1;exitX=0;exitY=0.5;exitDx=0;exitDy=0;entryX=1;entryY=0.5;entryDx=0;entryDy=0;" edge="1" parent="1" source="hbsouDKqxY18hAI5hccB-22" target="hbsouDKqxY18hAI5hccB-25">
          <mxGeometry relative="1" as="geometry" />
        </mxCell>
        <mxCell id="hbsouDKqxY18hAI5hccB-22" value="&lt;div&gt;stop&lt;/div&gt;" style="rounded=0;whiteSpace=wrap;html=1;" vertex="1" parent="1">
          <mxGeometry x="950" y="560" width="80" height="40" as="geometry" />
        </mxCell>
        <mxCell id="hbsouDKqxY18hAI5hccB-36" style="edgeStyle=orthogonalEdgeStyle;rounded=0;orthogonalLoop=1;jettySize=auto;html=1;exitX=0;exitY=0.5;exitDx=0;exitDy=0;entryX=0.25;entryY=1;entryDx=0;entryDy=0;" edge="1" parent="1" source="hbsouDKqxY18hAI5hccB-25" target="hbsouDKqxY18hAI5hccB-31">
          <mxGeometry relative="1" as="geometry" />
        </mxCell>
        <mxCell id="hbsouDKqxY18hAI5hccB-25" value="amend" style="rounded=0;whiteSpace=wrap;html=1;" vertex="1" parent="1">
          <mxGeometry x="810" y="560" width="80" height="40" as="geometry" />
        </mxCell>
        <mxCell id="hbsouDKqxY18hAI5hccB-33" style="edgeStyle=orthogonalEdgeStyle;rounded=0;orthogonalLoop=1;jettySize=auto;html=1;exitX=0.5;exitY=0;exitDx=0;exitDy=0;entryX=0;entryY=0.5;entryDx=0;entryDy=0;" edge="1" parent="1" source="hbsouDKqxY18hAI5hccB-31" target="hbsouDKqxY18hAI5hccB-6">
          <mxGeometry relative="1" as="geometry" />
        </mxCell>
        <mxCell id="hbsouDKqxY18hAI5hccB-34" style="edgeStyle=orthogonalEdgeStyle;rounded=0;orthogonalLoop=1;jettySize=auto;html=1;exitX=0.75;exitY=1;exitDx=0;exitDy=0;entryX=0;entryY=0.5;entryDx=0;entryDy=0;" edge="1" parent="1" source="hbsouDKqxY18hAI5hccB-31" target="hbsouDKqxY18hAI5hccB-7">
          <mxGeometry relative="1" as="geometry" />
        </mxCell>
        <mxCell id="hbsouDKqxY18hAI5hccB-35" style="edgeStyle=orthogonalEdgeStyle;rounded=0;orthogonalLoop=1;jettySize=auto;html=1;exitX=1;exitY=0.5;exitDx=0;exitDy=0;entryX=0;entryY=0.5;entryDx=0;entryDy=0;" edge="1" parent="1" source="hbsouDKqxY18hAI5hccB-31" target="hbsouDKqxY18hAI5hccB-2">
          <mxGeometry relative="1" as="geometry" />
        </mxCell>
        <mxCell id="hbsouDKqxY18hAI5hccB-31" value="" style="whiteSpace=wrap;html=1;aspect=fixed;" vertex="1" parent="1">
          <mxGeometry x="-60" y="425" width="50" height="50" as="geometry" />
        </mxCell>
        <mxCell id="hbsouDKqxY18hAI5hccB-42" style="edgeStyle=orthogonalEdgeStyle;rounded=0;orthogonalLoop=1;jettySize=auto;html=1;exitX=0;exitY=0.5;exitDx=0;exitDy=0;entryX=0.5;entryY=0;entryDx=0;entryDy=0;" edge="1" parent="1" source="hbsouDKqxY18hAI5hccB-37" target="hbsouDKqxY18hAI5hccB-3">
          <mxGeometry relative="1" as="geometry" />
        </mxCell>
        <mxCell id="hbsouDKqxY18hAI5hccB-37" value="uninstall" style="rounded=0;whiteSpace=wrap;html=1;" vertex="1" parent="1">
          <mxGeometry x="650" y="330" width="80" height="40" as="geometry" />
        </mxCell>
      </root>
    </mxGraphModel>
  </diagram>
</mxfile>
